<svg width="23" height="19" viewBox="0 0 23 19" fill="none" xmlns="http://www.w3.org/2000/svg">
<path d="M18.0763 12.4764L18.8375 13.2429C20.4157 11.9946 21.6493 10.3621 22.4191 8.50011C20.644 4.20811 16.4254 1.18758 11.5 1.18758C10.096 1.18758 8.74871 1.43501 7.49926 1.8825L8.34842 2.72615C9.35173 2.43395 10.4158 2.27092 11.4999 2.27091L18.0763 12.4764ZM18.0763 12.4764C19.3662 11.4747 20.4135 10.191 21.1362 8.72063L21.2444 8.50045L21.1365 8.28012C20.2533 6.47721 18.882 4.95827 17.1784 3.89597C15.4749 2.83369 13.5075 2.27067 11.5 2.27091L18.0763 12.4764ZM1.75548 8.49965L1.86378 8.27942C2.51878 6.9476 3.4253 5.78954 4.50758 4.86031L4.85969 4.55799L5.18737 4.88663L8.72903 8.43871L8.85335 8.56339L8.87211 8.73846C8.93763 9.34974 9.21044 9.92017 9.64515 10.3549C10.0799 10.7896 10.6503 11.0624 11.2616 11.1279L11.4377 11.1468L11.5626 11.2723L13.9376 13.6577L14.5786 14.3015L13.6918 14.4986C12.9966 14.6531 12.2516 14.7292 11.5 14.7292L1.75548 8.49965ZM1.75548 8.49965L1.86344 8.72004M1.75548 8.49965L1.86344 8.72004M1.86344 8.72004C2.74663 10.523 4.11794 12.0419 5.82147 13.1042M1.86344 8.72004L5.82147 13.1042M5.82147 13.1042C7.52499 14.1665 9.49237 14.7295 11.5 14.7292L5.82147 13.1042ZM19.1276 17.5848L18.509 18.2083L15.6556 15.3549L15.4377 15.137L15.1452 15.2337C13.9983 15.6126 12.7805 15.8126 11.5 15.8126C6.57431 15.8126 2.35561 12.7919 0.580644 8.49963C1.27322 6.8172 2.34391 5.33318 3.69455 4.14654L4.09524 3.79451L3.7181 3.41736L1.79179 1.49105L2.41524 0.872471L19.1276 17.5848ZM11.4992 5.87508H11.5C12.1962 5.87508 12.8638 6.15164 13.3561 6.64393C13.8484 7.13621 14.125 7.80389 14.125 8.50008L14.125 8.50082C14.125 8.50445 14.125 8.50809 14.125 8.51172L11.4883 5.87509C11.492 5.87508 11.4956 5.87508 11.4992 5.87508Z" fill="#CED3DB" stroke="#CED3DB"/>
</svg>
